<?xml version="1.0" standalone="no"?>
<svg xmlns="http://www.w3.org/2000/svg" xmlns:xlink="http://www.w3.org/1999/xlink" width="2110pt" height="692pt" viewBox="0.00 0.00 2110.42 692.00">
<g id="graph0" class="graph" transform="translate(4,688) scale(1)" data-name="G">

<polygon fill="white" stroke="none" points="-4,4 -4,-688 2106.42,-688 2106.42,4 -4,4" style=""/>
<!-- bdw&#45;gc -->
<g id="node1" class="node" pointer-events="visible" data-name="bdw-gc">

<ellipse fill="none" stroke="black" cx="676.42" cy="-234" rx="40" ry="18" style=""/>
<text text-anchor="middle" x="676.42" y="-229.8" font-family="Times,serif" font-size="14.00" style="">bdw-gc</text>
</g>
<!-- ca&#45;certificates -->
<g id="node2" class="node" pointer-events="visible" data-name="ca-certificates">

<ellipse fill="none" stroke="black" cx="331.42" cy="-90" rx="65.36" ry="18" style=""/>
<text text-anchor="middle" x="331.42" y="-85.8" font-family="Times,serif" font-size="14.00" style="">ca-certificates</text>
</g>
<!-- cairo -->
<g id="node3" class="node" pointer-events="visible" data-name="cairo">

<ellipse fill="none" stroke="black" cx="1444.42" cy="-378" rx="30.17" ry="18" style=""/>
<text text-anchor="middle" x="1444.42" y="-373.8" font-family="Times,serif" font-size="14.00" style="">cairo</text>
</g>
<!-- fontconfig -->
<g id="node4" class="node" pointer-events="visible" data-name="fontconfig">

<ellipse fill="none" stroke="black" cx="1747.42" cy="-306" rx="51.03" ry="18" style=""/>
<text text-anchor="middle" x="1747.42" y="-301.8" font-family="Times,serif" font-size="14.00" style="">fontconfig</text>
</g>
<!-- cairo&#45;&gt;fontconfig -->
<g id="edge1" class="edge" data-name="cairo-&gt;fontconfig">

<path fill="none" stroke="black" d="M1472.38,-370.54C1522.82,-358.89 1629.81,-334.17 1694.47,-319.23" style=""/>
<polygon fill="black" stroke="black" points="1695.21,-322.65 1704.17,-316.99 1693.64,-315.83 1695.21,-322.65" style=""/>
</g>
<!-- freetype -->
<g id="node5" class="node" pointer-events="visible" data-name="freetype">

<ellipse fill="none" stroke="black" cx="1707.42" cy="-234" rx="42.83" ry="18" style=""/>
<text text-anchor="middle" x="1707.42" y="-229.8" font-family="Times,serif" font-size="14.00" style="">freetype</text>
</g>
<!-- cairo&#45;&gt;freetype -->
<g id="edge2" class="edge" data-name="cairo-&gt;freetype">

<path fill="none" stroke="black" d="M1472.79,-371.4C1506.3,-363.97 1563,-348.82 1606.42,-324 1622.84,-314.61 1658.89,-281.5 1683.17,-258.43" style=""/>
<polygon fill="black" stroke="black" points="1685.31,-261.22 1690.12,-251.78 1680.47,-256.16 1685.31,-261.22" style=""/>
</g>
<!-- glib -->
<g id="node6" class="node" pointer-events="visible" data-name="glib">

<ellipse fill="none" stroke="black" cx="1077.42" cy="-306" rx="27" ry="18" style=""/>
<text text-anchor="middle" x="1077.42" y="-301.8" font-family="Times,serif" font-size="14.00" style="">glib</text>
</g>
<!-- cairo&#45;&gt;glib -->
<g id="edge3" class="edge" data-name="cairo-&gt;glib">

<path fill="none" stroke="black" d="M1421.72,-365.8C1416.47,-363.58 1410.83,-361.48 1405.42,-360 1279.28,-325.52 1239.01,-360.38 1113.42,-324 1111.8,-323.53 1110.16,-323 1108.52,-322.42" style=""/>
<polygon fill="black" stroke="black" points="1109.9,-319.2 1099.32,-318.63 1107.23,-325.67 1109.9,-319.2" style=""/>
</g>
<!-- libpng -->
<g id="node7" class="node" pointer-events="visible" data-name="libpng">

<ellipse fill="none" stroke="black" cx="1707.42" cy="-162" rx="35.93" ry="18" style=""/>
<text text-anchor="middle" x="1707.42" y="-157.8" font-family="Times,serif" font-size="14.00" style="">libpng</text>
</g>
<!-- cairo&#45;&gt;libpng -->
<g id="edge4" class="edge" data-name="cairo-&gt;libpng">

<path fill="none" stroke="black" d="M1472.02,-370.27C1499.73,-362.51 1542.61,-347.69 1573.42,-324 1597.3,-305.63 1635.71,-238.8 1655.42,-216 1664.19,-205.84 1674.43,-195.18 1683.49,-186.1" style=""/>
<polygon fill="black" stroke="black" points="1685.68,-188.86 1690.33,-179.34 1680.76,-183.88 1685.68,-188.86" style=""/>
</g>
<!-- libx11 -->
<g id="node8" class="node" pointer-events="visible" data-name="libx11">

<ellipse fill="none" stroke="black" cx="1241.42" cy="-234" rx="35.93" ry="18" style=""/>
<text text-anchor="middle" x="1241.42" y="-229.8" font-family="Times,serif" font-size="14.00" style="">libx11</text>
</g>
<!-- cairo&#45;&gt;libx11 -->
<g id="edge5" class="edge" data-name="cairo-&gt;libx11">

<path fill="none" stroke="black" d="M1421.19,-366.02C1416.06,-363.84 1410.61,-361.7 1405.42,-360 1336.14,-337.34 1292.22,-379.88 1245.42,-324 1231.6,-307.5 1231.62,-282.65 1234.52,-263.4" style=""/>
<polygon fill="black" stroke="black" points="1237.92,-264.22 1236.32,-253.75 1231.04,-262.93 1237.92,-264.22" style=""/>
</g>
<!-- libxcb -->
<g id="node9" class="node" pointer-events="visible" data-name="libxcb">

<ellipse fill="none" stroke="black" cx="1368.42" cy="-162" rx="35.35" ry="18" style=""/>
<text text-anchor="middle" x="1368.42" y="-157.8" font-family="Times,serif" font-size="14.00" style="">libxcb</text>
</g>
<!-- cairo&#45;&gt;libxcb -->
<g id="edge6" class="edge" data-name="cairo-&gt;libxcb">

<path fill="none" stroke="black" d="M1429.84,-361.99C1420.93,-351.99 1410,-338.13 1403.42,-324 1383.07,-280.36 1374.35,-224.5 1370.76,-191.36" style=""/>
<polygon fill="black" stroke="black" points="1374.28,-191.35 1369.81,-181.75 1367.31,-192.05 1374.28,-191.35" style=""/>
</g>
<!-- libxext -->
<g id="node10" class="node" pointer-events="visible" data-name="libxext">

<ellipse fill="none" stroke="black" cx="1160.42" cy="-306" rx="37.71" ry="18" style=""/>
<text text-anchor="middle" x="1160.42" y="-301.8" font-family="Times,serif" font-size="14.00" style="">libxext</text>
</g>
<!-- cairo&#45;&gt;libxext -->
<g id="edge7" class="edge" data-name="cairo-&gt;libxext">

<path fill="none" stroke="black" d="M1421.65,-366.05C1416.4,-363.81 1410.78,-361.65 1405.42,-360 1322,-334.4 1296.96,-345.6 1212.42,-324 1208.67,-323.04 1204.8,-321.96 1200.93,-320.81" style=""/>
<polygon fill="black" stroke="black" points="1202.22,-317.55 1191.64,-317.93 1200.15,-324.23 1202.22,-317.55" style=""/>
</g>
<!-- libxrender -->
<g id="node11" class="node" pointer-events="visible" data-name="libxrender">

<ellipse fill="none" stroke="black" cx="1305.42" cy="-306" rx="50.94" ry="18" style=""/>
<text text-anchor="middle" x="1305.42" y="-301.8" font-family="Times,serif" font-size="14.00" style="">libxrender</text>
</g>
<!-- cairo&#45;&gt;libxrender -->
<g id="edge8" class="edge" data-name="cairo-&gt;libxrender">

<path fill="none" stroke="black" d="M1421.77,-365.6C1400.77,-355.02 1369.09,-339.06 1344.08,-326.47" style=""/>
<polygon fill="black" stroke="black" points="1345.68,-323.36 1335.17,-321.99 1342.53,-329.61 1345.68,-323.36" style=""/>
</g>
<!-- lzo -->
<g id="node12" class="node" pointer-events="visible" data-name="lzo">

<ellipse fill="none" stroke="black" cx="1439.42" cy="-306" rx="27" ry="18" style=""/>
<text text-anchor="middle" x="1439.42" y="-301.8" font-family="Times,serif" font-size="14.00" style="">lzo</text>
</g>
<!-- cairo&#45;&gt;lzo -->
<g id="edge9" class="edge" data-name="cairo-&gt;lzo">

<path fill="none" stroke="black" d="M1443.18,-359.7C1442.66,-352.41 1442.04,-343.73 1441.45,-335.54" style=""/>
<polygon fill="black" stroke="black" points="1444.95,-335.34 1440.75,-325.61 1437.97,-335.84 1444.95,-335.34" style=""/>
</g>
<!-- pixman -->
<g id="node13" class="node" pointer-events="visible" data-name="pixman">

<ellipse fill="none" stroke="black" cx="1524.42" cy="-306" rx="40.01" ry="18" style=""/>
<text text-anchor="middle" x="1524.42" y="-301.8" font-family="Times,serif" font-size="14.00" style="">pixman</text>
</g>
<!-- cairo&#45;&gt;pixman -->
<g id="edge10" class="edge" data-name="cairo-&gt;pixman">

<path fill="none" stroke="black" d="M1460.99,-362.5C1471.75,-353.09 1485.99,-340.63 1498.25,-329.9" style=""/>
<polygon fill="black" stroke="black" points="1500.39,-332.67 1505.61,-323.45 1495.78,-327.4 1500.39,-332.67" style=""/>
</g>
<!-- fontconfig&#45;&gt;freetype -->
<g id="edge15" class="edge" data-name="fontconfig-&gt;freetype">

<path fill="none" stroke="black" d="M1737.73,-288.05C1733.21,-280.14 1727.72,-270.54 1722.67,-261.69" style=""/>
<polygon fill="black" stroke="black" points="1725.76,-260.05 1717.76,-253.1 1719.68,-263.52 1725.76,-260.05" style=""/>
</g>
<!-- freetype&#45;&gt;libpng -->
<g id="edge16" class="edge" data-name="freetype-&gt;libpng">

<path fill="none" stroke="black" d="M1707.42,-215.7C1707.42,-208.41 1707.42,-199.73 1707.42,-191.54" style=""/>
<polygon fill="black" stroke="black" points="1710.92,-191.62 1707.42,-181.62 1703.92,-191.62 1710.92,-191.62" style=""/>
</g>
<!-- gettext -->
<g id="node23" class="node" pointer-events="visible" data-name="gettext">

<ellipse fill="none" stroke="black" cx="1029.42" cy="-234" rx="37.13" ry="18" style=""/>
<text text-anchor="middle" x="1029.42" y="-229.8" font-family="Times,serif" font-size="14.00" style="">gettext</text>
</g>
<!-- glib&#45;&gt;gettext -->
<g id="edge21" class="edge" data-name="glib-&gt;gettext">

<path fill="none" stroke="black" d="M1066.52,-289.12C1060.78,-280.73 1053.58,-270.24 1047.06,-260.73" style=""/>
<polygon fill="black" stroke="black" points="1050,-258.82 1041.45,-252.56 1044.22,-262.78 1050,-258.82" style=""/>
</g>
<!-- pcre2 -->
<g id="node24" class="node" pointer-events="visible" data-name="pcre2">

<ellipse fill="none" stroke="black" cx="1117.42" cy="-234" rx="32.46" ry="18" style=""/>
<text text-anchor="middle" x="1117.42" y="-229.8" font-family="Times,serif" font-size="14.00" style="">pcre2</text>
</g>
<!-- glib&#45;&gt;pcre2 -->
<g id="edge22" class="edge" data-name="glib-&gt;pcre2">

<path fill="none" stroke="black" d="M1086.69,-288.76C1091.32,-280.67 1097.04,-270.66 1102.28,-261.49" style=""/>
<polygon fill="black" stroke="black" points="1105.24,-263.37 1107.16,-252.95 1099.16,-259.89 1105.24,-263.37" style=""/>
</g>
<!-- libx11&#45;&gt;libxcb -->
<g id="edge54" class="edge" data-name="libx11-&gt;libxcb">

<path fill="none" stroke="black" d="M1265.01,-220C1284.7,-209.14 1313,-193.54 1335.02,-181.41" style=""/>
<polygon fill="black" stroke="black" points="1336.56,-184.56 1343.63,-176.66 1333.18,-178.43 1336.56,-184.56" style=""/>
</g>
<!-- xorgproto -->
<g id="node46" class="node" pointer-events="visible" data-name="xorgproto">

<ellipse fill="none" stroke="black" cx="1305.42" cy="-18" rx="49.24" ry="18" style=""/>
<text text-anchor="middle" x="1305.42" y="-13.8" font-family="Times,serif" font-size="14.00" style="">xorgproto</text>
</g>
<!-- libx11&#45;&gt;xorgproto -->
<g id="edge55" class="edge" data-name="libx11-&gt;xorgproto">

<path fill="none" stroke="black" d="M1246.55,-215.85C1257.55,-179.07 1283.5,-92.29 1296.97,-47.24" style=""/>
<polygon fill="black" stroke="black" points="1300.32,-48.27 1299.83,-37.68 1293.61,-46.26 1300.32,-48.27" style=""/>
</g>
<!-- libpthread&#45;stubs -->
<g id="node42" class="node" pointer-events="visible" data-name="libpthread-stubs">

<ellipse fill="none" stroke="black" cx="1006.42" cy="-90" rx="73.02" ry="18" style=""/>
<text text-anchor="middle" x="1006.42" y="-85.8" font-family="Times,serif" font-size="14.00" style="">libpthread-stubs</text>
</g>
<!-- libxcb&#45;&gt;libpthread&#45;stubs -->
<g id="edge57" class="edge" data-name="libxcb-&gt;libpthread-stubs">

<path fill="none" stroke="black" d="M1335.65,-154.66C1276.68,-143.26 1151.57,-119.07 1073.69,-104.01" style=""/>
<polygon fill="black" stroke="black" points="1074.52,-100.6 1064.04,-102.14 1073.19,-107.48 1074.52,-100.6" style=""/>
</g>
<!-- libxau -->
<g id="node47" class="node" pointer-events="visible" data-name="libxau">

<ellipse fill="none" stroke="black" cx="1368.42" cy="-90" rx="35.35" ry="18" style=""/>
<text text-anchor="middle" x="1368.42" y="-85.8" font-family="Times,serif" font-size="14.00" style="">libxau</text>
</g>
<!-- libxcb&#45;&gt;libxau -->
<g id="edge58" class="edge" data-name="libxcb-&gt;libxau">

<path fill="none" stroke="black" d="M1368.42,-143.7C1368.42,-136.41 1368.42,-127.73 1368.42,-119.54" style=""/>
<polygon fill="black" stroke="black" points="1371.92,-119.62 1368.42,-109.62 1364.92,-119.62 1371.92,-119.62" style=""/>
</g>
<!-- libxdmcp -->
<g id="node48" class="node" pointer-events="visible" data-name="libxdmcp">

<ellipse fill="none" stroke="black" cx="1469.42" cy="-90" rx="47.53" ry="18" style=""/>
<text text-anchor="middle" x="1469.42" y="-85.8" font-family="Times,serif" font-size="14.00" style="">libxdmcp</text>
</g>
<!-- libxcb&#45;&gt;libxdmcp -->
<g id="edge59" class="edge" data-name="libxcb-&gt;libxdmcp">

<path fill="none" stroke="black" d="M1388.85,-146.83C1403.02,-137.02 1422.15,-123.76 1438.21,-112.63" style=""/>
<polygon fill="black" stroke="black" points="1439.79,-115.79 1446.01,-107.22 1435.8,-110.04 1439.79,-115.79" style=""/>
</g>
<!-- libxext&#45;&gt;libx11 -->
<g id="edge61" class="edge" data-name="libxext-&gt;libx11">

<path fill="none" stroke="black" d="M1177.99,-289.81C1188.92,-280.36 1203.18,-268.04 1215.41,-257.48" style=""/>
<polygon fill="black" stroke="black" points="1217.45,-260.34 1222.73,-251.15 1212.87,-255.04 1217.45,-260.34" style=""/>
</g>
<!-- libxext&#45;&gt;xorgproto -->
<g id="edge62" class="edge" data-name="libxext-&gt;xorgproto">

<path fill="none" stroke="black" d="M1166.63,-288.03C1173.41,-269.94 1184.83,-240.58 1196.42,-216 1227.44,-150.16 1238.7,-135.42 1274.42,-72 1279.25,-63.42 1284.63,-54.12 1289.54,-45.75" style=""/>
<polygon fill="black" stroke="black" points="1292.39,-47.8 1294.45,-37.41 1286.36,-44.25 1292.39,-47.8" style=""/>
</g>
<!-- libxrender&#45;&gt;libx11 -->
<g id="edge63" class="edge" data-name="libxrender-&gt;libx11">

<path fill="none" stroke="black" d="M1290.25,-288.41C1282.21,-279.62 1272.19,-268.66 1263.33,-258.96" style=""/>
<polygon fill="black" stroke="black" points="1265.95,-256.65 1256.62,-251.63 1260.78,-261.37 1265.95,-256.65" style=""/>
</g>
<!-- libxrender&#45;&gt;xorgproto -->
<g id="edge64" class="edge" data-name="libxrender-&gt;xorgproto">

<path fill="none" stroke="black" d="M1305.42,-287.54C1305.42,-239.76 1305.42,-106.51 1305.42,-47.61" style=""/>
<polygon fill="black" stroke="black" points="1308.92,-47.75 1305.42,-37.75 1301.92,-47.75 1308.92,-47.75" style=""/>
</g>
<!-- d12frosted/emacs&#45;plus/emacs&#45;plus@30 -->
<g id="node14" class="node" pointer-events="visible" data-name="d12frosted/emacs-plus/emacs-plus@30">

<ellipse fill="none" stroke="black" cx="1565.42" cy="-666" rx="163.28" ry="18" style=""/>
<text text-anchor="middle" x="1565.42" y="-661.8" font-family="Times,serif" font-size="14.00" style="">d12frosted/emacs-plus/emacs-plus@30</text>
</g>
<!-- gnutls -->
<g id="node15" class="node" pointer-events="visible" data-name="gnutls">

<ellipse fill="none" stroke="black" cx="470.42" cy="-378" rx="34.79" ry="18" style=""/>
<text text-anchor="middle" x="470.42" y="-373.8" font-family="Times,serif" font-size="14.00" style="">gnutls</text>
</g>
<!-- d12frosted/emacs&#45;plus/emacs&#45;plus@30&#45;&gt;gnutls -->
<g id="edge11" class="edge" data-name="d12frosted/emacs-plus/emacs-plus@30-&gt;gnutls">

<path fill="none" stroke="black" d="M1503.8,-648.91C1304.13,-596.75 678.16,-433.26 511.51,-389.73" style=""/>
<polygon fill="black" stroke="black" points="512.79,-386.45 502.23,-387.31 511.02,-393.22 512.79,-386.45" style=""/>
</g>
<!-- jansson -->
<g id="node16" class="node" pointer-events="visible" data-name="jansson">

<ellipse fill="none" stroke="black" cx="1666.42" cy="-594" rx="40.01" ry="18" style=""/>
<text text-anchor="middle" x="1666.42" y="-589.8" font-family="Times,serif" font-size="14.00" style="">jansson</text>
</g>
<!-- d12frosted/emacs&#45;plus/emacs&#45;plus@30&#45;&gt;jansson -->
<g id="edge12" class="edge" data-name="d12frosted/emacs-plus/emacs-plus@30-&gt;jansson">

<path fill="none" stroke="black" d="M1590.12,-647.88C1604.02,-638.25 1621.47,-626.15 1636.17,-615.96" style=""/>
<polygon fill="black" stroke="black" points="1637.91,-619.02 1644.13,-610.44 1633.92,-613.26 1637.91,-619.02" style=""/>
</g>
<!-- librsvg -->
<g id="node17" class="node" pointer-events="visible" data-name="librsvg">

<ellipse fill="none" stroke="black" cx="1532.42" cy="-594" rx="37.72" ry="18" style=""/>
<text text-anchor="middle" x="1532.42" y="-589.8" font-family="Times,serif" font-size="14.00" style="">librsvg</text>
</g>
<!-- d12frosted/emacs&#45;plus/emacs&#45;plus@30&#45;&gt;librsvg -->
<g id="edge13" class="edge" data-name="d12frosted/emacs-plus/emacs-plus@30-&gt;librsvg">

<path fill="none" stroke="black" d="M1557.26,-647.7C1553.61,-639.95 1549.22,-630.64 1545.15,-622.02" style=""/>
<polygon fill="black" stroke="black" points="1548.33,-620.54 1540.9,-612.99 1542,-623.53 1548.33,-620.54" style=""/>
</g>
<!-- little&#45;cms2 -->
<g id="node18" class="node" pointer-events="visible" data-name="little-cms2">

<ellipse fill="none" stroke="black" cx="1965.42" cy="-522" rx="52.18" ry="18" style=""/>
<text text-anchor="middle" x="1965.42" y="-517.8" font-family="Times,serif" font-size="14.00" style="">little-cms2</text>
</g>
<!-- d12frosted/emacs&#45;plus/emacs&#45;plus@30&#45;&gt;little&#45;cms2 -->
<g id="edge14" class="edge" data-name="d12frosted/emacs-plus/emacs-plus@30-&gt;little-cms2">

<path fill="none" stroke="black" d="M1570.36,-647.66C1577.25,-626.9 1591.88,-592.86 1617.42,-576 1724.71,-505.18 1778.38,-565.32 1904.42,-540 1908.25,-539.23 1912.2,-538.34 1916.15,-537.39" style=""/>
<polygon fill="black" stroke="black" points="1916.93,-540.8 1925.76,-534.94 1915.21,-534.02 1916.93,-540.8" style=""/>
</g>
<!-- gnutls&#45;&gt;ca&#45;certificates -->
<g id="edge23" class="edge" data-name="gnutls-&gt;ca-certificates">

<path fill="none" stroke="black" d="M435.38,-377.09C361.81,-375.11 192.51,-358.63 125.42,-252 81.93,-182.88 201.29,-131.4 276.1,-106.9" style=""/>
<polygon fill="black" stroke="black" points="276.89,-110.32 285.35,-103.94 274.76,-103.65 276.89,-110.32" style=""/>
</g>
<!-- gmp -->
<g id="node25" class="node" pointer-events="visible" data-name="gmp">

<ellipse fill="none" stroke="black" cx="48.42" cy="-234" rx="28.41" ry="18" style=""/>
<text text-anchor="middle" x="48.42" y="-229.8" font-family="Times,serif" font-size="14.00" style="">gmp</text>
</g>
<!-- gnutls&#45;&gt;gmp -->
<g id="edge24" class="edge" data-name="gnutls-&gt;gmp">

<path fill="none" stroke="black" d="M435.53,-375.63C332.64,-371.24 35.86,-355.89 7.42,-324 -9.77,-304.73 7.83,-277.03 25.01,-257.67" style=""/>
<polygon fill="black" stroke="black" points="27.42,-260.21 31.71,-250.52 22.32,-255.42 27.42,-260.21" style=""/>
</g>
<!-- guile -->
<g id="node26" class="node" pointer-events="visible" data-name="guile">

<ellipse fill="none" stroke="black" cx="676.42" cy="-306" rx="30.19" ry="18" style=""/>
<text text-anchor="middle" x="676.42" y="-301.8" font-family="Times,serif" font-size="14.00" style="">guile</text>
</g>
<!-- gnutls&#45;&gt;guile -->
<g id="edge25" class="edge" data-name="gnutls-&gt;guile">

<path fill="none" stroke="black" d="M499.06,-367.27C535.84,-354.77 599.72,-333.06 639.94,-319.4" style=""/>
<polygon fill="black" stroke="black" points="640.84,-322.79 649.18,-316.26 638.59,-316.16 640.84,-322.79" style=""/>
</g>
<!-- libidn2 -->
<g id="node27" class="node" pointer-events="visible" data-name="libidn2">

<ellipse fill="none" stroke="black" cx="918.42" cy="-306" rx="38.3" ry="18" style=""/>
<text text-anchor="middle" x="918.42" y="-301.8" font-family="Times,serif" font-size="14.00" style="">libidn2</text>
</g>
<!-- gnutls&#45;&gt;libidn2 -->
<g id="edge26" class="edge" data-name="gnutls-&gt;libidn2">

<path fill="none" stroke="black" d="M503.36,-371.85C581.76,-359.6 779.69,-328.68 870.96,-314.41" style=""/>
<polygon fill="black" stroke="black" points="871.5,-317.87 880.84,-312.87 870.42,-310.96 871.5,-317.87" style=""/>
</g>
<!-- libtasn1 -->
<g id="node28" class="node" pointer-events="visible" data-name="libtasn1">

<ellipse fill="none" stroke="black" cx="436.42" cy="-234" rx="41.73" ry="18" style=""/>
<text text-anchor="middle" x="436.42" y="-229.8" font-family="Times,serif" font-size="14.00" style="">libtasn1</text>
</g>
<!-- gnutls&#45;&gt;libtasn1 -->
<g id="edge27" class="edge" data-name="gnutls-&gt;libtasn1">

<path fill="none" stroke="black" d="M465.27,-359.89C462.23,-349.54 458.41,-336.07 455.42,-324 450.41,-303.82 445.53,-280.86 441.97,-263.32" style=""/>
<polygon fill="black" stroke="black" points="445.42,-262.74 440.03,-253.62 438.56,-264.11 445.42,-262.74" style=""/>
</g>
<!-- libunistring -->
<g id="node29" class="node" pointer-events="visible" data-name="libunistring">

<ellipse fill="none" stroke="black" cx="918.42" cy="-234" rx="55.64" ry="18" style=""/>
<text text-anchor="middle" x="918.42" y="-229.8" font-family="Times,serif" font-size="14.00" style="">libunistring</text>
</g>
<!-- gnutls&#45;&gt;libunistring -->
<g id="edge28" class="edge" data-name="gnutls-&gt;libunistring">

<path fill="none" stroke="black" d="M503.46,-372.01C551.05,-364.35 641.31,-347.99 715.42,-324 774.23,-304.96 839.17,-274.77 879.38,-254.92" style=""/>
<polygon fill="black" stroke="black" points="880.8,-258.12 888.2,-250.54 877.68,-251.86 880.8,-258.12" style=""/>
</g>
<!-- nettle -->
<g id="node30" class="node" pointer-events="visible" data-name="nettle">

<ellipse fill="none" stroke="black" cx="48.42" cy="-306" rx="32.47" ry="18" style=""/>
<text text-anchor="middle" x="48.42" y="-301.8" font-family="Times,serif" font-size="14.00" style="">nettle</text>
</g>
<!-- gnutls&#45;&gt;nettle -->
<g id="edge29" class="edge" data-name="gnutls-&gt;nettle">

<path fill="none" stroke="black" d="M435.72,-374.6C368.85,-369.44 217.79,-355.11 94.42,-324 91.24,-323.2 87.99,-322.26 84.74,-321.23" style=""/>
<polygon fill="black" stroke="black" points="85.93,-317.94 75.33,-318.01 83.66,-324.56 85.93,-317.94" style=""/>
</g>
<!-- p11&#45;kit -->
<g id="node31" class="node" pointer-events="visible" data-name="p11-kit">

<ellipse fill="none" stroke="black" cx="503.42" cy="-306" rx="38.86" ry="18" style=""/>
<text text-anchor="middle" x="503.42" y="-301.8" font-family="Times,serif" font-size="14.00" style="">p11-kit</text>
</g>
<!-- gnutls&#45;&gt;p11&#45;kit -->
<g id="edge30" class="edge" data-name="gnutls-&gt;p11-kit">

<path fill="none" stroke="black" d="M478.4,-360.05C482.09,-352.23 486.56,-342.75 490.7,-333.98" style=""/>
<polygon fill="black" stroke="black" points="493.76,-335.7 494.86,-325.16 487.43,-332.71 493.76,-335.7" style=""/>
</g>
<!-- unbound -->
<g id="node32" class="node" pointer-events="visible" data-name="unbound">

<ellipse fill="none" stroke="black" cx="329.42" cy="-306" rx="44.67" ry="18" style=""/>
<text text-anchor="middle" x="329.42" y="-301.8" font-family="Times,serif" font-size="14.00" style="">unbound</text>
</g>
<!-- gnutls&#45;&gt;unbound -->
<g id="edge31" class="edge" data-name="gnutls-&gt;unbound">

<path fill="none" stroke="black" d="M445.86,-364.81C424.04,-353.98 391.83,-337.98 366.81,-325.56" style=""/>
<polygon fill="black" stroke="black" points="368.45,-322.47 357.94,-321.16 365.34,-328.74 368.45,-322.47" style=""/>
</g>
<!-- librsvg&#45;&gt;cairo -->
<g id="edge47" class="edge" data-name="librsvg-&gt;cairo">

<path fill="none" stroke="black" d="M1539.86,-576C1552.25,-544.9 1573.13,-477.84 1545.42,-432 1531.92,-409.67 1505.57,-396.29 1483.16,-388.56" style=""/>
<polygon fill="black" stroke="black" points="1484.26,-385.24 1473.67,-385.56 1482.15,-391.91 1484.26,-385.24" style=""/>
</g>
<!-- librsvg&#45;&gt;glib -->
<g id="edge49" class="edge" data-name="librsvg-&gt;glib">

<path fill="none" stroke="black" d="M1494.37,-592.98C1412.87,-590.82 1220.18,-574.06 1113.42,-468 1078.18,-433 1074.16,-371.55 1075.24,-335.54" style=""/>
<polygon fill="black" stroke="black" points="1078.72,-336.04 1075.69,-325.89 1071.72,-335.71 1078.72,-336.04" style=""/>
</g>
<!-- gdk&#45;pixbuf -->
<g id="node20" class="node" pointer-events="visible" data-name="gdk-pixbuf">

<ellipse fill="none" stroke="black" cx="1841.42" cy="-522" rx="53.9" ry="18" style=""/>
<text text-anchor="middle" x="1841.42" y="-517.8" font-family="Times,serif" font-size="14.00" style="">gdk-pixbuf</text>
</g>
<!-- librsvg&#45;&gt;gdk&#45;pixbuf -->
<g id="edge48" class="edge" data-name="librsvg-&gt;gdk-pixbuf">

<path fill="none" stroke="black" d="M1562.22,-582.62C1569.44,-580.28 1577.16,-577.93 1584.42,-576 1651.89,-558.07 1730.68,-542.62 1783.06,-533.1" style=""/>
<polygon fill="black" stroke="black" points="1783.44,-536.58 1792.66,-531.37 1782.2,-529.7 1783.44,-536.58" style=""/>
</g>
<!-- pango -->
<g id="node43" class="node" pointer-events="visible" data-name="pango">

<ellipse fill="none" stroke="black" cx="1501.42" cy="-522" rx="34.77" ry="18" style=""/>
<text text-anchor="middle" x="1501.42" y="-517.8" font-family="Times,serif" font-size="14.00" style="">pango</text>
</g>
<!-- librsvg&#45;&gt;pango -->
<g id="edge50" class="edge" data-name="librsvg-&gt;pango">

<path fill="none" stroke="black" d="M1524.91,-576.05C1521.48,-568.32 1517.34,-558.96 1513.49,-550.27" style=""/>
<polygon fill="black" stroke="black" points="1516.71,-548.9 1509.46,-541.17 1510.31,-551.73 1516.71,-548.9" style=""/>
</g>
<!-- jpeg&#45;turbo -->
<g id="node21" class="node" pointer-events="visible" data-name="jpeg-turbo">

<ellipse fill="none" stroke="black" cx="1943.42" cy="-378" rx="51.03" ry="18" style=""/>
<text text-anchor="middle" x="1943.42" y="-373.8" font-family="Times,serif" font-size="14.00" style="">jpeg-turbo</text>
</g>
<!-- little&#45;cms2&#45;&gt;jpeg&#45;turbo -->
<g id="edge65" class="edge" data-name="little-cms2-&gt;jpeg-turbo">

<path fill="none" stroke="black" d="M1962.72,-503.59C1959,-479.61 1952.27,-436.14 1947.82,-407.42" style=""/>
<polygon fill="black" stroke="black" points="1951.29,-406.95 1946.3,-397.61 1944.37,-408.02 1951.29,-406.95" style=""/>
</g>
<!-- libtiff -->
<g id="node22" class="node" pointer-events="visible" data-name="libtiff">

<ellipse fill="none" stroke="black" cx="2003.42" cy="-450" rx="33.06" ry="18" style=""/>
<text text-anchor="middle" x="2003.42" y="-445.8" font-family="Times,serif" font-size="14.00" style="">libtiff</text>
</g>
<!-- little&#45;cms2&#45;&gt;libtiff -->
<g id="edge66" class="edge" data-name="little-cms2-&gt;libtiff">

<path fill="none" stroke="black" d="M1974.61,-504.05C1978.91,-496.14 1984.12,-486.54 1988.93,-477.69" style=""/>
<polygon fill="black" stroke="black" points="1991.89,-479.58 1993.58,-469.12 1985.73,-476.24 1991.89,-479.58" style=""/>
</g>
<!-- fribidi -->
<g id="node19" class="node" pointer-events="visible" data-name="fribidi">

<ellipse fill="none" stroke="black" cx="1501.42" cy="-450" rx="35.35" ry="18" style=""/>
<text text-anchor="middle" x="1501.42" y="-445.8" font-family="Times,serif" font-size="14.00" style="">fribidi</text>
</g>
<!-- gdk&#45;pixbuf&#45;&gt;glib -->
<g id="edge17" class="edge" data-name="gdk-pixbuf-&gt;glib">

<path fill="none" stroke="black" d="M1788.03,-518.46C1670.1,-512.43 1390.66,-495.61 1300.42,-468 1236.14,-448.33 1221.41,-436.03 1167.42,-396 1141.21,-376.57 1115.12,-349.74 1097.84,-330.63" style=""/>
<polygon fill="black" stroke="black" points="1100.59,-328.46 1091.33,-323.32 1095.36,-333.11 1100.59,-328.46" style=""/>
</g>
<!-- gdk&#45;pixbuf&#45;&gt;libpng -->
<g id="edge19" class="edge" data-name="gdk-pixbuf-&gt;libpng">

<path fill="none" stroke="black" d="M1846.07,-503.66C1852.79,-477.05 1864.42,-424.45 1864.42,-379 1864.42,-379 1864.42,-379 1864.42,-305 1864.42,-241.41 1792.7,-198.91 1746.21,-178.04" style=""/>
<polygon fill="black" stroke="black" points="1747.8,-174.92 1737.24,-174.16 1745.02,-181.34 1747.8,-174.92" style=""/>
</g>
<!-- gdk&#45;pixbuf&#45;&gt;jpeg&#45;turbo -->
<g id="edge18" class="edge" data-name="gdk-pixbuf-&gt;jpeg-turbo">

<path fill="none" stroke="black" d="M1853.52,-504.15C1871.15,-479.6 1904.07,-433.77 1924.81,-404.91" style=""/>
<polygon fill="black" stroke="black" points="1927.46,-407.22 1930.45,-397.05 1921.77,-403.13 1927.46,-407.22" style=""/>
</g>
<!-- gdk&#45;pixbuf&#45;&gt;libtiff -->
<g id="edge20" class="edge" data-name="gdk-pixbuf-&gt;libtiff">

<path fill="none" stroke="black" d="M1873.42,-507.17C1900.65,-495.41 1939.71,-478.53 1967.9,-466.35" style=""/>
<polygon fill="black" stroke="black" points="1968.94,-469.71 1976.73,-462.53 1966.16,-463.28 1968.94,-469.71" style=""/>
</g>
<!-- libtiff&#45;&gt;jpeg&#45;turbo -->
<g id="edge51" class="edge" data-name="libtiff-&gt;jpeg-turbo">

<path fill="none" stroke="black" d="M1989.8,-433.12C1982.39,-424.47 1973.05,-413.58 1964.7,-403.83" style=""/>
<polygon fill="black" stroke="black" points="1967.54,-401.77 1958.38,-396.46 1962.23,-406.33 1967.54,-401.77" style=""/>
</g>
<!-- zstd -->
<g id="node44" class="node" pointer-events="visible" data-name="zstd">

<ellipse fill="none" stroke="black" cx="2039.42" cy="-378" rx="27" ry="18" style=""/>
<text text-anchor="middle" x="2039.42" y="-373.8" font-family="Times,serif" font-size="14.00" style="">zstd</text>
</g>
<!-- libtiff&#45;&gt;zstd -->
<g id="edge52" class="edge" data-name="libtiff-&gt;zstd">

<path fill="none" stroke="black" d="M2011.95,-432.41C2016.07,-424.39 2021.12,-414.57 2025.77,-405.54" style=""/>
<polygon fill="black" stroke="black" points="2028.79,-407.31 2030.25,-396.82 2022.57,-404.11 2028.79,-407.31" style=""/>
</g>
<!-- guile&#45;&gt;bdw&#45;gc -->
<g id="edge32" class="edge" data-name="guile-&gt;bdw-gc">

<path fill="none" stroke="black" d="M676.42,-287.7C676.42,-280.41 676.42,-271.73 676.42,-263.54" style=""/>
<polygon fill="black" stroke="black" points="679.92,-263.62 676.42,-253.62 672.92,-263.62 679.92,-263.62" style=""/>
</g>
<!-- guile&#45;&gt;gmp -->
<g id="edge33" class="edge" data-name="guile-&gt;gmp">

<path fill="none" stroke="black" d="M647.17,-300.59C621.87,-296.89 584.29,-291.62 551.42,-288 362.55,-267.19 313.27,-280.54 125.42,-252 112.36,-250.02 98.21,-247.11 85.64,-244.27" style=""/>
<polygon fill="black" stroke="black" points="86.63,-240.9 76.1,-242.04 85.04,-247.72 86.63,-240.9" style=""/>
</g>
<!-- guile&#45;&gt;libunistring -->
<g id="edge35" class="edge" data-name="guile-&gt;libunistring">

<path fill="none" stroke="black" d="M703.24,-297.24C742.6,-285.86 816.74,-264.41 866.86,-249.91" style=""/>
<polygon fill="black" stroke="black" points="867.7,-253.31 876.34,-247.17 865.76,-246.59 867.7,-253.31" style=""/>
</g>
<!-- libtool -->
<g id="node34" class="node" pointer-events="visible" data-name="libtool">

<ellipse fill="none" stroke="black" cx="770.42" cy="-234" rx="36.01" ry="18" style=""/>
<text text-anchor="middle" x="770.42" y="-229.8" font-family="Times,serif" font-size="14.00" style="">libtool</text>
</g>
<!-- guile&#45;&gt;libtool -->
<g id="edge34" class="edge" data-name="guile-&gt;libtool">

<path fill="none" stroke="black" d="M694.54,-291.5C707.97,-281.5 726.54,-267.67 741.94,-256.2" style=""/>
<polygon fill="black" stroke="black" points="743.91,-259.1 749.84,-250.32 739.73,-253.49 743.91,-259.1" style=""/>
</g>
<!-- pkg&#45;config -->
<g id="node35" class="node" pointer-events="visible" data-name="pkg-config">

<ellipse fill="none" stroke="black" cx="920.42" cy="-18" rx="53.32" ry="18" style=""/>
<text text-anchor="middle" x="920.42" y="-13.8" font-family="Times,serif" font-size="14.00" style="">pkg-config</text>
</g>
<!-- guile&#45;&gt;pkg&#45;config -->
<g id="edge36" class="edge" data-name="guile-&gt;pkg-config">

<path fill="none" stroke="black" d="M698.83,-293.63C702.98,-291.66 707.3,-289.71 711.42,-288 756.61,-269.28 779.31,-284.99 815.42,-252 877.02,-195.72 904.78,-96.38 915.17,-47.63" style=""/>
<polygon fill="black" stroke="black" points="918.59,-48.36 917.15,-37.86 911.73,-46.97 918.59,-48.36" style=""/>
</g>
<!-- readline -->
<g id="node36" class="node" pointer-events="visible" data-name="readline">

<ellipse fill="none" stroke="black" cx="576.42" cy="-234" rx="42.27" ry="18" style=""/>
<text text-anchor="middle" x="576.42" y="-229.8" font-family="Times,serif" font-size="14.00" style="">readline</text>
</g>
<!-- guile&#45;&gt;readline -->
<g id="edge37" class="edge" data-name="guile-&gt;readline">

<path fill="none" stroke="black" d="M657.61,-291.83C643.32,-281.84 623.39,-267.88 606.84,-256.3" style=""/>
<polygon fill="black" stroke="black" points="609,-253.54 598.8,-250.67 604.99,-259.27 609,-253.54" style=""/>
</g>
<!-- libidn2&#45;&gt;gettext -->
<g id="edge44" class="edge" data-name="libidn2-&gt;gettext">

<path fill="none" stroke="black" d="M940.61,-291C957.05,-280.63 979.68,-266.36 997.98,-254.82" style=""/>
<polygon fill="black" stroke="black" points="999.77,-257.84 1006.36,-249.54 996.03,-251.92 999.77,-257.84" style=""/>
</g>
<!-- libidn2&#45;&gt;libunistring -->
<g id="edge45" class="edge" data-name="libidn2-&gt;libunistring">

<path fill="none" stroke="black" d="M918.42,-287.7C918.42,-280.41 918.42,-271.73 918.42,-263.54" style=""/>
<polygon fill="black" stroke="black" points="921.92,-263.62 918.42,-253.62 914.92,-263.62 921.92,-263.62" style=""/>
</g>
<!-- nettle&#45;&gt;gmp -->
<g id="edge67" class="edge" data-name="nettle-&gt;gmp">

<path fill="none" stroke="black" d="M48.42,-287.7C48.42,-280.41 48.42,-271.73 48.42,-263.54" style=""/>
<polygon fill="black" stroke="black" points="51.92,-263.62 48.42,-253.62 44.92,-263.62 51.92,-263.62" style=""/>
</g>
<!-- p11&#45;kit&#45;&gt;ca&#45;certificates -->
<g id="edge69" class="edge" data-name="p11-kit-&gt;ca-certificates">

<path fill="none" stroke="black" d="M503.72,-287.75C503.31,-268.9 500.42,-238.4 487.42,-216 460.19,-169.08 408.05,-132.86 371.58,-111.76" style=""/>
<polygon fill="black" stroke="black" points="373.49,-108.82 363.06,-106.96 370.05,-114.92 373.49,-108.82" style=""/>
</g>
<!-- p11&#45;kit&#45;&gt;libtasn1 -->
<g id="edge70" class="edge" data-name="p11-kit-&gt;libtasn1">

<path fill="none" stroke="black" d="M488.21,-289.12C479.73,-280.26 468.99,-269.04 459.5,-259.12" style=""/>
<polygon fill="black" stroke="black" points="462.05,-256.72 452.61,-251.91 456.99,-261.56 462.05,-256.72" style=""/>
</g>
<!-- libevent -->
<g id="node39" class="node" pointer-events="visible" data-name="libevent">

<ellipse fill="none" stroke="black" cx="296.42" cy="-234" rx="42.29" ry="18" style=""/>
<text text-anchor="middle" x="296.42" y="-229.8" font-family="Times,serif" font-size="14.00" style="">libevent</text>
</g>
<!-- unbound&#45;&gt;libevent -->
<g id="edge77" class="edge" data-name="unbound-&gt;libevent">

<path fill="none" stroke="black" d="M321.43,-288.05C317.74,-280.23 313.27,-270.75 309.13,-261.98" style=""/>
<polygon fill="black" stroke="black" points="312.41,-260.71 304.98,-253.16 306.07,-263.7 312.41,-260.71" style=""/>
</g>
<!-- openssl@1.1 -->
<g id="node40" class="node" pointer-events="visible" data-name="openssl@1.1">

<ellipse fill="none" stroke="black" cx="331.42" cy="-162" rx="60.94" ry="18" style=""/>
<text text-anchor="middle" x="331.42" y="-157.8" font-family="Times,serif" font-size="14.00" style="">openssl@1.1</text>
</g>
<!-- unbound&#45;&gt;openssl@1.1 -->
<g id="edge79" class="edge" data-name="unbound-&gt;openssl@1.1">

<path fill="none" stroke="black" d="M336.71,-288.18C340.75,-277.94 345.36,-264.46 347.42,-252 350.02,-236.21 349.75,-231.83 347.42,-216 346.21,-207.82 344.01,-199.16 341.62,-191.26" style=""/>
<polygon fill="black" stroke="black" points="344.96,-190.23 338.54,-181.81 338.31,-192.4 344.96,-190.23" style=""/>
</g>
<!-- libnghttp2 -->
<g id="node41" class="node" pointer-events="visible" data-name="libnghttp2">

<ellipse fill="none" stroke="black" cx="185.42" cy="-234" rx="50.98" ry="18" style=""/>
<text text-anchor="middle" x="185.42" y="-229.8" font-family="Times,serif" font-size="14.00" style="">libnghttp2</text>
</g>
<!-- unbound&#45;&gt;libnghttp2 -->
<g id="edge78" class="edge" data-name="unbound-&gt;libnghttp2">

<path fill="none" stroke="black" d="M301.65,-291.5C279.87,-280.91 249.26,-266.04 224.92,-254.2" style=""/>
<polygon fill="black" stroke="black" points="226.46,-251.06 215.94,-249.84 223.4,-257.36 226.46,-251.06" style=""/>
</g>
<!-- graphite2 -->
<g id="node33" class="node" pointer-events="visible" data-name="graphite2">

<ellipse fill="none" stroke="black" cx="1348.42" cy="-378" rx="47.51" ry="18" style=""/>
<text text-anchor="middle" x="1348.42" y="-373.8" font-family="Times,serif" font-size="14.00" style="">graphite2</text>
</g>
<!-- m4 -->
<g id="node45" class="node" pointer-events="visible" data-name="m4">

<ellipse fill="none" stroke="black" cx="770.42" cy="-162" rx="27" ry="18" style=""/>
<text text-anchor="middle" x="770.42" y="-157.8" font-family="Times,serif" font-size="14.00" style="">m4</text>
</g>
<!-- libtool&#45;&gt;m4 -->
<g id="edge53" class="edge" data-name="libtool-&gt;m4">

<path fill="none" stroke="black" d="M770.42,-215.7C770.42,-208.41 770.42,-199.73 770.42,-191.54" style=""/>
<polygon fill="black" stroke="black" points="773.92,-191.62 770.42,-181.62 766.92,-191.62 773.92,-191.62" style=""/>
</g>
<!-- harfbuzz -->
<g id="node37" class="node" pointer-events="visible" data-name="harfbuzz">

<ellipse fill="none" stroke="black" cx="1354.42" cy="-450" rx="44.63" ry="18" style=""/>
<text text-anchor="middle" x="1354.42" y="-445.8" font-family="Times,serif" font-size="14.00" style="">harfbuzz</text>
</g>
<!-- harfbuzz&#45;&gt;cairo -->
<g id="edge38" class="edge" data-name="harfbuzz-&gt;cairo">

<path fill="none" stroke="black" d="M1374.39,-433.46C1387.1,-423.58 1403.71,-410.66 1417.56,-399.89" style=""/>
<polygon fill="black" stroke="black" points="1419.69,-402.66 1425.44,-393.76 1415.39,-397.14 1419.69,-402.66" style=""/>
</g>
<!-- harfbuzz&#45;&gt;freetype -->
<g id="edge39" class="edge" data-name="harfbuzz-&gt;freetype">

<path fill="none" stroke="black" d="M1391.96,-439.78C1450.48,-423.96 1564.81,-387.09 1642.42,-324 1663.68,-306.71 1681.5,-280.9 1693.07,-261.52" style=""/>
<polygon fill="black" stroke="black" points="1695.97,-263.51 1697.93,-253.09 1689.91,-260.01 1695.97,-263.51" style=""/>
</g>
<!-- harfbuzz&#45;&gt;glib -->
<g id="edge40" class="edge" data-name="harfbuzz-&gt;glib">

<path fill="none" stroke="black" d="M1317.68,-439.3C1287.62,-430.48 1244.65,-415.82 1210.42,-396 1188.85,-383.51 1187.78,-374.37 1167.42,-360 1148.34,-346.54 1125.7,-333.21 1107.89,-323.29" style=""/>
<polygon fill="black" stroke="black" points="1109.8,-320.35 1099.35,-318.6 1106.43,-326.48 1109.8,-320.35" style=""/>
</g>
<!-- harfbuzz&#45;&gt;graphite2 -->
<g id="edge41" class="edge" data-name="harfbuzz-&gt;graphite2">

<path fill="none" stroke="black" d="M1352.93,-431.7C1352.31,-424.41 1351.56,-415.73 1350.86,-407.54" style=""/>
<polygon fill="black" stroke="black" points="1354.35,-407.28 1350.01,-397.61 1347.38,-407.87 1354.35,-407.28" style=""/>
</g>
<!-- icu4c -->
<g id="node38" class="node" pointer-events="visible" data-name="icu4c">

<ellipse fill="none" stroke="black" cx="1251.42" cy="-378" rx="31.9" ry="18" style=""/>
<text text-anchor="middle" x="1251.42" y="-373.8" font-family="Times,serif" font-size="14.00" style="">icu4c</text>
</g>
<!-- harfbuzz&#45;&gt;icu4c -->
<g id="edge42" class="edge" data-name="harfbuzz-&gt;icu4c">

<path fill="none" stroke="black" d="M1332.32,-433.98C1317.1,-423.64 1296.73,-409.8 1280.24,-398.59" style=""/>
<polygon fill="black" stroke="black" points="1282.53,-395.91 1272.29,-393.19 1278.6,-401.7 1282.53,-395.91" style=""/>
</g>
<!-- libevent&#45;&gt;openssl@1.1 -->
<g id="edge43" class="edge" data-name="libevent-&gt;openssl@1.1">

<path fill="none" stroke="black" d="M304.89,-216.05C308.74,-208.35 313.4,-199.03 317.73,-190.36" style=""/>
<polygon fill="black" stroke="black" points="320.76,-192.14 322.1,-181.63 314.5,-189.01 320.76,-192.14" style=""/>
</g>
<!-- openssl@1.1&#45;&gt;ca&#45;certificates -->
<g id="edge68" class="edge" data-name="openssl@1.1-&gt;ca-certificates">

<path fill="none" stroke="black" d="M331.42,-143.7C331.42,-136.41 331.42,-127.73 331.42,-119.54" style=""/>
<polygon fill="black" stroke="black" points="334.92,-119.62 331.42,-109.62 327.92,-119.62 334.92,-119.62" style=""/>
</g>
<!-- libpthread&#45;stubs&#45;&gt;pkg&#45;config -->
<g id="edge46" class="edge" data-name="libpthread-stubs-&gt;pkg-config">

<path fill="none" stroke="black" d="M986.04,-72.41C974.95,-63.39 961.07,-52.09 948.93,-42.21" style=""/>
<polygon fill="black" stroke="black" points="951.2,-39.54 941.23,-35.94 946.78,-44.97 951.2,-39.54" style=""/>
</g>
<!-- pango&#45;&gt;cairo -->
<g id="edge71" class="edge" data-name="pango-&gt;cairo">

<path fill="none" stroke="black" d="M1484.97,-505.89C1475.34,-496.06 1463.84,-482.42 1457.42,-468 1449,-449.11 1445.82,-425.94 1444.7,-407.98" style=""/>
<polygon fill="black" stroke="black" points="1448.2,-407.85 1444.28,-398.01 1441.2,-408.15 1448.2,-407.85" style=""/>
</g>
<!-- pango&#45;&gt;fontconfig -->
<g id="edge72" class="edge" data-name="pango-&gt;fontconfig">

<path fill="none" stroke="black" d="M1524.67,-508.37C1560.98,-487.92 1632.21,-444.89 1682.42,-396 1701.61,-377.3 1719.26,-352.42 1731.31,-333.72" style=""/>
<polygon fill="black" stroke="black" points="1734.23,-335.66 1736.59,-325.33 1728.3,-331.93 1734.23,-335.66" style=""/>
</g>
<!-- pango&#45;&gt;freetype -->
<g id="edge73" class="edge" data-name="pango-&gt;freetype">

<path fill="none" stroke="black" d="M1532.12,-512.93C1598.39,-493.57 1753.26,-437.47 1807.42,-324 1814.31,-309.56 1815.67,-301.71 1807.42,-288 1795.74,-268.59 1774.3,-255.92 1754.26,-247.84" style=""/>
<polygon fill="black" stroke="black" points="1755.67,-244.63 1745.07,-244.45 1753.24,-251.2 1755.67,-244.63" style=""/>
</g>
<!-- pango&#45;&gt;glib -->
<g id="edge75" class="edge" data-name="pango-&gt;glib">

<path fill="none" stroke="black" d="M1466.58,-520.27C1385.95,-517.9 1189.53,-508.05 1139.42,-468 1118.08,-450.94 1095.67,-376.44 1084.55,-335.03" style=""/>
<polygon fill="black" stroke="black" points="1087.98,-334.3 1082.05,-325.52 1081.21,-336.08 1087.98,-334.3" style=""/>
</g>
<!-- pango&#45;&gt;fribidi -->
<g id="edge74" class="edge" data-name="pango-&gt;fribidi">

<path fill="none" stroke="black" d="M1501.42,-503.7C1501.42,-496.41 1501.42,-487.73 1501.42,-479.54" style=""/>
<polygon fill="black" stroke="black" points="1504.92,-479.62 1501.42,-469.62 1497.92,-479.62 1504.92,-479.62" style=""/>
</g>
<!-- pango&#45;&gt;harfbuzz -->
<g id="edge76" class="edge" data-name="pango-&gt;harfbuzz">

<path fill="none" stroke="black" d="M1476.48,-509.13C1453.48,-498.17 1419.01,-481.76 1392.55,-469.16" style=""/>
<polygon fill="black" stroke="black" points="1394.39,-466.16 1383.86,-465.02 1391.38,-472.48 1394.39,-466.16" style=""/>
</g>
<!-- lz4 -->
<g id="node49" class="node" pointer-events="visible" data-name="lz4">

<ellipse fill="none" stroke="black" cx="2003.42" cy="-306" rx="27" ry="18" style=""/>
<text text-anchor="middle" x="2003.42" y="-301.8" font-family="Times,serif" font-size="14.00" style="">lz4</text>
</g>
<!-- zstd&#45;&gt;lz4 -->
<g id="edge80" class="edge" data-name="zstd-&gt;lz4">

<path fill="none" stroke="black" d="M2031.07,-360.76C2026.84,-352.55 2021.61,-342.37 2016.84,-333.09" style=""/>
<polygon fill="black" stroke="black" points="2020.1,-331.79 2012.41,-324.49 2013.87,-334.99 2020.1,-331.79" style=""/>
</g>
<!-- xz -->
<g id="node50" class="node" pointer-events="visible" data-name="xz">

<ellipse fill="none" stroke="black" cx="2075.42" cy="-306" rx="27" ry="18" style=""/>
<text text-anchor="middle" x="2075.42" y="-301.8" font-family="Times,serif" font-size="14.00" style="">xz</text>
</g>
<!-- zstd&#45;&gt;xz -->
<g id="edge81" class="edge" data-name="zstd-&gt;xz">

<path fill="none" stroke="black" d="M2047.77,-360.76C2051.99,-352.55 2057.22,-342.37 2062,-333.09" style=""/>
<polygon fill="black" stroke="black" points="2064.96,-334.99 2066.42,-324.49 2058.73,-331.79 2064.96,-334.99" style=""/>
</g>
<!-- libxau&#45;&gt;xorgproto -->
<g id="edge56" class="edge" data-name="libxau-&gt;xorgproto">

<path fill="none" stroke="black" d="M1354.12,-73.12C1346.34,-64.47 1336.53,-53.58 1327.77,-43.83" style=""/>
<polygon fill="black" stroke="black" points="1330.4,-41.52 1321.1,-36.43 1325.19,-46.21 1330.4,-41.52" style=""/>
</g>
<!-- libxdmcp&#45;&gt;xorgproto -->
<g id="edge60" class="edge" data-name="libxdmcp-&gt;xorgproto">

<path fill="none" stroke="black" d="M1438.57,-75.83C1412.73,-64.81 1375.62,-48.97 1347.14,-36.81" style=""/>
<polygon fill="black" stroke="black" points="1348.65,-33.65 1338.07,-32.94 1345.9,-40.08 1348.65,-33.65" style=""/>
</g>
</g>
</svg>